<svg width="135" height="48" viewBox="0 0 135 48" fill="none" xmlns="http://www.w3.org/2000/svg">
<path d="M31.1484 19.2188C31.1484 22.6719 30.5625 25.6953 29.3906 28.2891C28.2188 30.8672 26.4844 32.875 24.1875 34.3125C21.8906 35.75 19.0547 36.4688 15.6797 36.4688C12.1797 36.4688 9.28125 35.75 6.98438 34.3125C4.6875 32.8594 2.96875 30.8359 1.82812 28.2422C0.703125 25.6484 0.140625 22.625 0.140625 19.1719C0.140625 15.75 0.703125 12.7578 1.82812 10.1953C2.96875 7.61719 4.6875 5.60938 6.98438 4.17188C9.29688 2.73438 12.2109 2.01562 15.7266 2.01562C19.0859 2.01562 21.9062 2.72656 24.1875 4.14844C26.4844 5.57031 28.2188 7.57031 29.3906 10.1484C30.5625 12.7266 31.1484 15.75 31.1484 19.2188ZM4.61719 19.2188C4.61719 23.4375 5.50781 26.7578 7.28906 29.1797C9.08594 31.6016 11.8828 32.8125 15.6797 32.8125C19.5078 32.8125 22.2969 31.6016 24.0469 29.1797C25.8125 26.7578 26.6953 23.4375 26.6953 19.2188C26.6953 15 25.8125 11.6953 24.0469 9.30469C22.2969 6.91406 19.5234 5.71875 15.7266 5.71875C11.9141 5.71875 9.10938 6.91406 7.3125 9.30469C5.51562 11.6953 4.61719 15 4.61719 19.2188ZM50.9766 10.4062C54.1953 10.4062 56.7812 11.4844 58.7344 13.6406C60.7031 15.7969 61.6875 19.0469 61.6875 23.3906C61.6875 27.6719 60.7031 30.9219 58.7344 33.1406C56.7812 35.3594 54.1797 36.4688 50.9297 36.4688C48.9141 36.4688 47.25 36.1094 45.9375 35.3906C44.625 34.6562 43.5859 33.7969 42.8203 32.8125H42.5391C42.5859 33.3438 42.6406 34.0156 42.7031 34.8281C42.7812 35.6406 42.8203 36.3438 42.8203 36.9375V47.25H38.6953V10.875H42.0938L42.6328 14.2969H42.8203C43.6016 13.2188 44.625 12.3047 45.8906 11.5547C47.1562 10.7891 48.8516 10.4062 50.9766 10.4062ZM50.2734 13.875C47.5859 13.875 45.6719 14.5938 44.5312 16.0312C43.3906 17.4688 42.8203 19.6562 42.8203 22.5938V23.3906C42.8203 26.4844 43.3594 28.8672 44.4375 30.5391C45.5156 32.2109 47.5 33.0469 50.3906 33.0469C52.7812 33.0469 54.5469 32.1328 55.6875 30.3047C56.8438 28.4766 57.4219 26.1562 57.4219 23.3438C57.4219 20.4844 56.8438 18.1953 55.6875 16.4766C54.5312 14.7422 52.7266 13.875 50.2734 13.875ZM78.0703 10.4531C81.0547 10.4531 83.2656 11.125 84.7031 12.4688C86.1562 13.8125 86.8828 15.9531 86.8828 18.8906V36H83.9062L83.1094 32.4375H82.9219C81.8438 33.8125 80.7109 34.8281 79.5234 35.4844C78.3516 36.1406 76.7344 36.4688 74.6719 36.4688C72.4531 36.4688 70.6016 35.8672 69.1172 34.6641C67.6484 33.4453 66.9141 31.5625 66.9141 29.0156C66.9141 26.5 67.875 24.5703 69.7969 23.2266C71.7188 21.8828 74.6797 21.1406 78.6797 21L82.8516 20.8594V19.3594C82.8516 17.2656 82.4062 15.8125 81.5156 15C80.6406 14.1875 79.4062 13.7812 77.8125 13.7812C76.5312 13.7812 75.3125 13.9766 74.1562 14.3672C73 14.7578 71.9141 15.2031 70.8984 15.7031L69.6328 12.6094C70.7109 12.0156 71.9844 11.5078 73.4531 11.0859C74.9219 10.6641 76.4609 10.4531 78.0703 10.4531ZM82.8047 23.7188L79.2188 23.8594C76.1875 23.9688 74.0859 24.4688 72.9141 25.3594C71.7578 26.2344 71.1797 27.4688 71.1797 29.0625C71.1797 30.4688 71.5938 31.5 72.4219 32.1562C73.25 32.8125 74.3203 33.1406 75.6328 33.1406C77.6797 33.1406 79.3828 32.5547 80.7422 31.3828C82.1172 30.2109 82.8047 28.4062 82.8047 25.9688V23.7188ZM104.203 33.0938C104.844 33.0938 105.523 33.0469 106.242 32.9531C106.961 32.8438 107.516 32.7188 107.906 32.5781V35.7188C107.469 35.9219 106.82 36.0938 105.961 36.2344C105.117 36.3906 104.32 36.4688 103.57 36.4688C102.195 36.4688 100.914 36.2422 99.7266 35.7891C98.5391 35.3359 97.5781 34.5469 96.8438 33.4219C96.125 32.2969 95.7656 30.7188 95.7656 28.6875V14.0625H91.8984V12.0938L95.7656 10.4531L97.4766 5.10938H99.8906V10.875H107.719V14.0625H99.8906V28.5938C99.8906 30.1094 100.297 31.2422 101.109 31.9922C101.922 32.7266 102.953 33.0938 104.203 33.0938ZM117.539 0.375V10.8281C117.539 12.0781 117.461 13.25 117.305 14.3438H117.609C118.406 13.0469 119.508 12.0781 120.914 11.4375C122.32 10.7812 123.828 10.4531 125.438 10.4531C128.5 10.4531 130.797 11.1797 132.328 12.6328C133.875 14.0859 134.648 16.4219 134.648 19.6406V36H130.594V19.9219C130.594 15.8906 128.711 13.875 124.945 13.875C122.117 13.875 120.172 14.6641 119.109 16.2422C118.062 17.8203 117.539 20.0781 117.539 23.0156V36H113.414V0.375H117.539Z" fill="white"/>
</svg>
